<?xml version="1.0" standalone="no"?>
<!DOCTYPE svg PUBLIC "-//W3C//DTD SVG 20010904//EN"
 "http://www.w3.org/TR/2001/REC-SVG-20010904/DTD/svg10.dtd">
<svg version="1.0" xmlns="http://www.w3.org/2000/svg"
 width="528.000000pt" height="528.000000pt" viewBox="0 0 528.000000 528.000000"
 preserveAspectRatio="xMidYMid meet">
<metadata>
Created by potrace 1.14, written by Peter Selinger 2001-2017
</metadata>
<g transform="translate(0.000000,528.000000) scale(0.100000,-0.100000)"
fill="#000000" stroke="none">
<path d="M2457 5243 c-3 -2 -33 -6 -68 -8 -35 -3 -75 -7 -89 -10 -14 -2 -45
-7 -70 -10 -60 -8 -84 -13 -160 -30 -36 -8 -78 -18 -95 -21 -51 -10 -245 -74
-335 -111 -257 -106 -538 -278 -744 -455 -120 -104 -309 -312 -405 -448 -39
-54 -201 -316 -201 -324 0 -2 -21 -48 -46 -102 -61 -130 -139 -344 -159 -439
-3 -11 -8 -33 -12 -50 -4 -16 -7 -32 -8 -35 -1 -3 -4 -18 -8 -35 -10 -41 -14
-61 -22 -125 -4 -30 -9 -64 -11 -75 -28 -146 -21 -571 12 -749 3 -17 7 -44 9
-61 4 -35 60 -251 80 -310 56 -167 152 -381 235 -523 322 -559 867 -988 1505
-1186 49 -15 163 -45 198 -52 10 -2 26 -6 35 -8 9 -3 33 -8 52 -10 19 -3 69
-10 110 -16 131 -19 211 -24 375 -24 228 0 340 12 545 55 74 16 144 31 155 35
11 3 27 7 35 9 8 2 16 4 18 5 1 2 5 3 10 4 38 9 140 43 201 68 356 140 631
320 901 588 320 317 537 676 660 1090 44 150 58 214 76 340 4 30 8 57 9 60 1
3 5 37 9 75 4 39 10 86 13 105 7 43 6 322 -1 370 -3 19 -8 60 -11 90 -4 30 -8
57 -10 60 -1 3 -6 32 -9 65 -4 33 -11 83 -16 110 -6 28 -12 59 -14 70 -27 139
-111 366 -206 561 -208 423 -500 753 -905 1022 -129 87 -342 200 -452 242 -32
13 -80 31 -108 42 -106 40 -308 93 -435 114 -14 3 -36 7 -50 9 -14 3 -47 8
-75 11 -27 3 -68 8 -90 10 -51 7 -423 12 -428 7z"/>
</g>
</svg>
